<svg width="126" height="48" viewBox="0 0 126 48" fill="none" xmlns="http://www.w3.org/2000/svg">
<path d="M126 33.8787C124.472 31.7909 123.487 28.9912 123.214 25.9586C123.066 24.3924 123.04 22.8262 123.127 21.2472C123.205 19.6301 123.353 18.013 123.58 16.4086C124.015 13.4409 124.556 10.5083 125.199 7.62257C125.286 7.50797 125.347 7.39337 125.399 7.26603C124.398 5.3433 125.887 3.30596 124.459 2.04536H123.797C121.986 1.9435 119.966 1.91803 118.034 1.7907C116.066 1.66336 114.116 1.30683 112.218 0.733829C111.974 0.733829 111.721 0.033495 111.46 0.00802836H110.703C109.527 -0.0683717 108.387 0.428229 107.246 0.326362C105.688 0.224495 104.147 0.428229 102.588 0.453695C101.03 0.453695 99.4627 0.797496 97.8694 0.937562C96.7115 1.0649 95.5622 1.26863 94.4565 1.39596C93.6381 1.4851 92.8458 1.61243 92.0535 1.70156L88.5709 2.0199C86.8557 2.1727 85.1406 2.33823 83.4776 2.42736H80.6828C79.3333 2.42736 77.9664 2.42736 76.5386 2.30003L73.0299 2.14723C71.9851 2.14723 70.9142 2.14723 69.852 1.96896C67.9983 1.75434 66.1393 1.65239 64.2799 1.66336H61.7289C59.9682 1.5415 58.2047 1.5415 56.444 1.66336H53.1356L48.1381 1.89256L44.0199 1.99443L41.2948 2.08356C40.2674 2.08356 39.2749 2.23636 38.2823 2.2873H37.6816C36.8371 2.4019 35.9838 2.42736 35.1306 2.37643L32.9627 2.50376H30.4117L24.857 2.41463C23.8296 2.41463 22.8284 2.41463 21.8184 2.5165L18.7363 2.80936C17.7264 2.8985 17.0386 2.98763 16.1853 3.00036C14.3047 3.00036 12.4328 3.0895 10.6132 3.25503C8.90672 3.36963 7.20896 3.36963 5.51119 3.25503C5.29353 3.2423 5.07587 3.25503 4.85821 3.3187L4.47512 3.40783C3.8072 3.18926 3.11087 3.24657 2.46393 3.57336C2.34204 3.59883 2.23756 3.64976 2.14179 3.72616C1.91542 4.14637 1.75 4.60477 1.65423 5.0759C1.66399 6.38163 1.48292 7.67534 1.12313 8.87044C0.818408 9.7363 0.557214 10.6276 0.339552 11.519V11.659L1.80224 12.6777L0 12.8942V13.9892L2.66418 15.2244V15.479L0.348259 15.339V15.7974C0.348259 16.3067 0.879353 16.816 0.879353 17.2617C0.852939 18.2617 0.720775 19.2496 0.487562 20.1904C0.217662 21.2472 0.426617 22.3805 1.04478 23.2209C1.29726 23.4883 1.51493 23.7939 1.68035 24.1377C2.06343 25.1818 2.35075 26.2642 2.551 27.372C2.66418 28.8236 2.69901 30.3007 2.66418 31.765V34.3117C2.58659 35.9044 2.49952 37.4961 2.40299 39.0867C2.40299 39.214 2.31592 39.3668 2.24627 39.4941C1.94154 40.0289 1.73259 40.6274 1.6194 41.2513C1.44527 42.6138 1.27114 43.989 1.04478 45.3769C0.940299 46.09 1.65423 46.4465 3.20398 46.5611L3.82214 46.6885C4.67537 46.8158 5.52861 46.8158 6.37314 46.6885C6.67786 46.6248 7 46.5866 7.32214 46.5357C9.43781 46.7903 11.5622 46.8922 13.6953 46.8667L13.9565 46.5484H14.0697C15.8632 46.9304 17.6915 47.2615 19.5547 47.5416C21.1045 47.7199 22.7065 47.8345 24.3433 47.8981C25.7189 47.8981 27.1119 48 28.4963 48C29.2624 48 30.0286 48 30.7861 47.8981C31.5348 47.7963 32.0572 47.7963 32.7015 47.7708C33.8072 47.7708 34.9042 47.7708 36.0012 47.8345C37.0983 47.9109 38.352 47.9618 39.5448 47.9618C40.7289 47.9873 41.9304 47.9618 43.1231 47.8854C45.2998 47.7581 47.5547 47.7963 49.7836 47.7963C51.4901 47.7963 53.1878 47.7071 54.8856 47.4907C55.7823 47.3251 56.6791 47.236 57.5846 47.236C60.0572 47.236 62.5386 47.3633 65.0112 47.4907C66.8047 47.5671 68.5896 47.7453 70.3744 47.9109C72.2289 48.0382 74.0921 47.9745 75.9378 47.7326C76.6169 47.6562 77.2873 47.5925 77.9751 47.5416L82.9727 47.3251C83.5995 47.3251 84.2525 47.2233 84.8271 47.1341L88.4577 46.663C88.658 46.6375 88.8495 46.6375 89.0498 46.663C91.0261 46.9431 92.9677 47.2742 94.9527 47.5161C96.607 47.6944 98.2873 47.7963 100.055 47.8472H103.189C104.774 47.7835 106.341 47.6689 107.917 47.5543L109.197 47.2997C110.468 47.1214 111.634 46.9431 112.853 46.8158H113.271C116.806 46.8922 120.323 47.0195 123.85 47.1723C123.945 46.6248 124.015 46.0645 124.085 45.517C124.215 45.3897 124.32 45.2369 124.398 45.0713C124.468 44.7657 124.546 43.798 124.598 43.4924C124.494 43.1613 124.424 42.8175 124.398 42.4737C124.398 41.3277 124.468 40.1945 124.398 39.0485C125.965 37.9025 124.459 34.9483 126 33.866V33.8787Z" fill="#4E3207"/>
<path d="M122.918 8.59032C121.943 6.82039 123.371 4.96132 122.021 3.78985H121.386C119.644 3.68799 117.772 3.68799 115.874 3.56065C113.994 3.47152 112.113 3.17865 110.276 2.66932C110.041 2.66932 109.797 2.01992 109.562 1.99445H108.84C107.751 1.99445 106.663 2.42739 105.566 2.33825C104.077 2.24912 102.606 2.42739 101.126 2.46559C99.6456 2.49105 98.0871 2.77119 96.5983 2.92399C95.4839 3.02585 94.3869 3.21685 93.3247 3.33145C92.5498 3.42059 91.8011 3.53519 91.0349 3.61159L87.7003 3.89172C86.0461 4.04452 84.418 4.19732 82.8073 4.27372H80.1431C78.8371 4.27372 77.5486 4.27372 76.2513 4.15912L72.8906 4.01905C71.8807 4.04452 70.862 3.98085 69.8608 3.85352C68.085 3.65634 66.3046 3.56289 64.5237 3.57339H62.0772C60.3919 3.46122 58.704 3.46122 57.0187 3.57339H53.8844L49.1046 3.77712L45.2128 3.86625L42.6182 3.95539C41.6518 3.95539 40.7028 4.08272 39.7451 4.14639H39.1618C38.3608 4.22279 37.5598 4.22279 36.7588 4.15912L34.6867 4.28645H32.1879L26.7115 4.15912H23.7949C22.8197 4.15912 21.8098 4.33739 20.8347 4.42652C19.8682 4.51565 19.2153 4.59206 18.3881 4.60479C16.5946 4.60479 14.8098 4.69392 13.0598 4.84672C11.421 4.95802 9.77947 4.95802 8.14064 4.84672C7.93493 4.82209 7.72819 4.82209 7.52248 4.84672C7.03491 4.99952 6.52994 5.06319 6.02496 5.03772C5.6485 4.95417 5.26359 5.02014 4.91054 5.22872C4.62322 5.66166 4.42297 6.17099 4.3272 6.70579C4.38815 7.85179 4.28367 8.98506 4.00506 10.0801C3.71512 10.8622 3.45922 11.6702 3.23889 12.4995V12.6268L4.64064 13.5691L2.96899 13.7728C2.97371 13.849 2.97371 13.9258 2.96899 14.002V14.7787L6.0772 16.1794L3.26501 15.9884V16.4213C3.26501 16.8925 3.76999 17.3636 3.7874 17.822C3.75258 18.7006 3.63069 19.5792 3.41302 20.4323C3.117 21.451 3.33467 22.597 3.99636 23.3865C4.23143 23.6411 4.43168 23.9213 4.60581 24.2396C4.92795 25.1946 5.17173 26.1878 5.32845 27.2065C5.43292 28.5435 5.46775 29.9059 5.43292 31.2557V32.2489C5.3981 32.7964 5.3981 33.3439 5.43292 33.9042C5.43292 34.3117 5.74636 34.7319 5.74636 35.1521C5.78118 36.2726 5.54611 37.3804 5.06725 38.3481C4.79319 38.8192 4.59131 39.3706 4.47521 39.9653L3.918 43.7853C3.81352 44.4474 4.50133 44.753 5.98143 44.8676L6.62571 44.9567C7.45282 45.0841 8.28865 45.0841 9.11576 44.9567C9.77745 44.8039 10.4391 44.7021 11.1182 44.6257H14.714C15.2974 44.6639 15.872 44.753 16.4379 44.9186C18.1705 45.2751 19.9205 45.5807 21.7053 45.8353C23.1854 45.9881 24.709 46.09 26.2849 46.1537C27.5822 46.1537 28.8794 46.2428 30.2638 46.2556C30.9951 46.281 31.7265 46.2555 32.4578 46.1537C33.0672 46.0773 33.6767 46.0263 34.2949 46.0391H37.4379C38.4827 46.0391 39.7016 46.1664 40.8334 46.1664H44.2638C46.3533 46.0391 48.5038 46.0645 50.6195 46.0645C52.265 46.09 53.9018 45.9881 55.5299 45.7844C56.3919 45.6571 57.2538 45.5807 58.1245 45.5679C60.4926 45.5679 62.8695 45.6953 65.2289 45.7844C66.9441 45.8735 68.6506 46.0264 70.418 46.1919C72.1854 46.2938 73.9702 46.2428 75.7289 46.0264C76.3645 46.0264 77.0349 45.899 77.6792 45.8481L82.4677 45.5679C83.0685 45.5425 83.6518 45.4916 84.2351 45.3897L87.7177 44.9567H88.2837C90.1643 45.2241 92.0274 45.5425 93.9429 45.7462C95.5187 45.9117 97.1294 46.0136 98.7575 46.0518H101.77C103.276 46.0518 104.791 45.8863 106.306 45.7971L107.612 45.5425C108.77 45.3897 109.928 45.2241 111.103 45.1095C112.775 44.9313 114.481 44.7912 116.153 44.6257C117.331 44.6468 118.5 44.3085 119.583 43.6325C119.758 43.5561 119.932 43.5179 120.115 43.5306C120.228 43.5306 120.323 43.5943 120.393 43.6834L120.55 44.2564C120.915 44.3838 121.325 44.3201 121.647 44.0781C121.856 43.9253 122.03 43.7089 122.152 43.4669C122.239 43.2123 122.3 42.2955 122.352 41.9899C122.072 40.8444 121.983 39.6179 122.091 38.4118H119.74C120.506 38.4118 121.272 36.9347 122.047 37.9661C123.571 36.922 122.047 34.1079 123.545 33.0765C122.807 32.1181 122.19 30.9756 121.725 29.7022C121.293 28.4782 121.005 27.1568 120.872 25.7931C120.733 24.3669 120.698 22.9153 120.785 21.4765C120.855 19.9867 121.003 18.5096 121.22 17.0453C121.429 15.5682 121.69 14.0784 121.96 12.7796C122.23 11.4808 122.517 10.1311 122.779 8.95959C122.839 8.85352 122.886 8.73286 122.918 8.60306V8.59032Z" fill="#FAF7F1"/>
</svg>
