<svg width="1280" height="104" viewBox="0 0 1280 104" fill="none" xmlns="http://www.w3.org/2000/svg">
<path d="M1280 0H0V104C1.792 103.863 3.40267 103.689 4.39467 103.667C10.7947 103.53 17.0453 103.783 23.4347 103.516C30.9013 103.205 38.4533 103.017 45.9627 102.728C51.6907 102.504 61.056 103.357 65.5787 100.48C67.1893 99.4531 69.9947 95.9689 72.1493 95.9689C74.5387 95.9689 76.4693 99.7206 79.0293 100.089C80.0107 100.234 81.728 99.5182 82.7733 99.4314C84.4051 99.3637 86.0429 99.4146 87.6587 99.5832C90.5092 99.6668 93.333 99.9922 96.064 100.552C102.741 102.222 110.496 101.275 117.579 101.08C124.203 100.877 130.805 100.487 137.419 100.19C152.512 99.5254 167.029 98.1664 182.144 99.8146C188.885 100.537 196.075 100.364 202.891 100.248C206.411 100.19 206.517 99.9953 207.605 97.6242C208.608 95.446 209.675 93.2774 210.805 91.1184C213.163 92.9111 213.824 95.5207 214.869 97.8267C216.309 100.993 218.827 100.089 223.083 99.9953C225.343 99.8991 227.611 99.9184 229.867 100.053C231.157 100.154 233.707 101.036 234.88 100.711C237.707 99.9374 236.651 95.6002 238.155 94.2484C239.659 92.8966 244.149 94.5159 245.621 95.3544C247.851 96.6484 247.861 99.1061 248.821 100.942C250.059 103.429 251.691 102.07 254.773 101.521C258.41 101.003 262.095 100.655 265.803 100.48C280.8 99.3085 296.224 99.7567 311.307 99.5254C326.773 99.2652 342.112 99.8507 357.547 100.14C365.6 100.292 373.547 101.253 381.611 101.311C384.725 101.311 387.253 101.528 389.28 99.5688C390.816 98.123 391.413 96.0773 392.768 94.5087C395.264 96.7279 396.245 102.583 400.448 103.255C402.805 103.631 406.379 102.865 408.832 102.786C411.285 102.706 413.867 102.612 416 102.67V102.41C417.067 102.337 417.237 102.258 417.941 102.214C424.853 101.781 431.232 102.128 438.123 102.424C446.165 102.764 453.589 100.458 461.493 100.429C464.693 100.429 468.811 101.34 471.957 100.653C474.944 100.003 473.867 98.0291 476.139 96.9592C477.355 96.3881 479.819 97.0026 481.237 96.9592C483.077 96.8764 484.906 96.7049 486.709 96.446C490.433 96.0371 494.226 96.0079 497.963 96.3592C501.077 96.6267 503.883 96.9953 506.496 98.2821C509.365 99.7278 510.837 100.349 514.592 100.451C521.995 100.711 529.291 100.321 536.704 100.87C543.36 101.369 550.048 101.557 556.725 101.802C564.48 102.092 572.096 102.822 579.904 102.525C583.648 102.366 587.307 101.571 591.051 101.571C594.976 101.571 593.579 100.74 596.661 99.5543C598.251 98.9399 601.056 99.2652 602.901 98.8314C604.586 98.3386 606.201 97.7409 607.723 97.0459C611.083 95.6942 611.093 96.8146 614.549 97.617C617.557 98.3399 618.635 98.6869 620.501 97.2556C622.368 95.8243 622.069 92.1232 624.533 90.9955C626.421 91.6172 626.72 96.5038 627.072 97.7905C627.488 99.323 627.253 100.111 629.333 100.762C630.496 101.123 633.6 100.762 634.901 100.762H659.147C676.075 100.827 692.896 99.9519 709.813 99.9447C717.963 99.9447 726.165 100.176 734.347 99.8001C738.251 99.6194 742.187 99.0772 746.08 99.2724C749.973 99.4676 750.741 98.7086 753.547 96.6917C755.925 95.0002 757.291 93.4316 760.928 94.3352C764 95.1014 765.995 97.8917 769.184 98.1592C771.829 98.3833 775.403 97.7544 778.176 97.7544C782.443 97.7544 786.677 97.8074 790.88 97.9134C798.752 98.123 806.549 98.376 814.411 98.6941C820.267 98.9399 825.6 99.7567 832 100.031V100.162C835.2 100.082 838.784 100.769 842.229 100.762C848.928 100.762 855.349 100.284 862.027 100.039C870.24 99.6917 878.528 100.096 886.72 99.6989C891.52 99.4676 898.453 100.096 902.624 98.3182C904.395 97.552 906.528 94.1761 908.373 94.2556C910.507 94.3496 911.979 97.1471 912.64 98.1519C914.592 101.007 914.955 101.043 919.552 101.043C923.147 101.043 926.773 101.123 930.357 100.928C944.491 100.147 958.624 100.313 972.768 100.01C976.565 99.9302 981.995 100.574 985.568 99.8218C988.16 99.2796 987.755 99.1495 988.171 97.1255C988.435 95.0238 989.083 92.9525 990.101 90.9593C991.509 88.6678 992.085 89.6003 993.76 91.4075C995.669 93.4605 997.216 96.3303 999.435 98.1519C1001.35 99.7278 1003.95 99.5977 1006.98 99.7639C1010.01 99.9302 1013.24 99.9302 1016.36 99.9447C1017.34 99.9447 1020.22 100.284 1021.08 99.8796C1022.14 99.3881 1021.21 99.2796 1021.74 98.6435C1022.75 97.4291 1021.29 97.4724 1023.78 97.0893C1025.02 96.8941 1026.98 97.2917 1028.31 97.3351C1031.31 97.4435 1034.33 97.4363 1037.32 97.4724C1040.86 97.4724 1043.39 97.2339 1046.21 98.6363C1049.02 100.039 1052.04 99.8362 1055.81 99.8941C1070.74 100.133 1086.02 101.065 1100.97 100.668C1109.1 100.451 1117.37 99.9447 1125.5 100.075C1132.15 100.212 1139.19 100.964 1145.59 101.007H1146.66V100.921C1147.01 100.866 1147.36 100.825 1147.72 100.798C1152.27 100.248 1156.67 100.675 1161.24 100.942C1166.33 101.239 1171.46 101.376 1176.58 101.376C1178.65 101.376 1180.66 101.217 1182.71 101.145C1184.76 101.072 1187.08 101.542 1189.25 101.311C1193.26 100.877 1195.65 98.9616 1198.28 97.1471C1199.61 99.482 1199.7 100.227 1203.48 99.8435C1206.82 99.5037 1209.88 99.5326 1213.25 99.4025C1214.9 99.3375 1216.9 99.3664 1218.33 98.7664C1219.39 98.311 1219.86 97.0387 1220.81 96.6917C1222.19 96.1857 1226.56 97.5881 1228.5 97.7616C1235.97 98.4411 1243.43 99.8796 1250.9 99.9302C1252.53 99.9302 1253.94 100.205 1254.94 99.2869C1255.84 98.4772 1256.01 96.6628 1256.31 95.6725C1256.5 95.0074 1257.66 89.275 1257.97 89.304C1258.51 91.3039 1259.06 93.3015 1259.62 95.2966C1260.06 96.8941 1259.83 99.482 1262.15 100.039C1264.66 100.646 1268.95 100.147 1271.63 100.248C1274.61 100.357 1276.77 100.668 1279.09 99.2146C1279.37 99.0411 1279.67 98.8314 1279.98 98.6146L1280 0Z" fill="#F3EADC" fill-opacity="0.6"/>
</svg>
