<svg xmlns="http://www.w3.org/2000/svg" viewBox="0 0 587.6 331.5" width="100%" height="100%" preserveAspectRatio="none" fill="#996515">
<path d="M563.9 163.9c-.5-.1-.7 0-.3.1l.3.1.4.1c.1 0 0 0 0 0h-.1c-.1 0-.2 0-.3-.1.2.1.6.1.9.2l2.2.1-2.3-.4c-.3 0-1-.2-.5-.1s-.1 0-.3 0zM580.5 169.6c.4 1.3.8 2.5 1 3.8.2.9.5 1.3.8.4-.3-1.4-.5-2.3-.8-3.2-.1-.2-.1-.5-.2-.7-.1-.3-.2-.5-.4-.8-.4-.7-1-1.2-1.8-1.5-1.1-.5-2.3-.9-3.6-1-.9-.2-1.3-.3-1-.3-1-.1-1.9-.3-2.8-.5-1.1-.3-2.2-.4-3.3-.6.9.3 1.9.5 3 .8 1.1.3 2.2.5 3.3.7 1.2.1 2.5.3 3.6.7.6.2 1.2.5 1.6.9.4.4.8.9 1 1.5.1.9-.2 0-.4-.2zM493.3 325.4l1.9.1c-.6 0-1.2-.1-1.9-.1zM312.1 322.9c.7-.2 1.5-.3 2.2-.4-.6 0-1.2.1-1.8.3-.4.1-.6.1-.4.1zM290.6 324.7l.2-.7.2-.7-.4 1.4zM493.3 325.4l-4.9-.4c-.3.4 2.5.3 4.9.4zM576.2 199.6c-.1-.3-.2-.7-.2-1 0 .3 0 .7.1 1h.1zM573 325.4h.9c.2-.2.3-.4.4-.6-.2.1-.3.2-.5.3-.2.1-.5.2-.8.3zM579.3 286.4c-.1 1.1 1.4 1.5 2.1 1.9-.7-.7-1-1.5-1.1-2.4-.3 0-.6.1-1 .5zM579.9 208.8c0-.5 0-.9-.1-1.3 0 .3 0 .9.1 1.3zM529.6 324.7c-.1-.2-.3-.3-.6-.4 0 .2.2.3.6.4zM576.5 118c-.1.2-.2.2 0 0z"/>
<path d="M563.6 164.5c.1-.2.2-.1.2-.2l.2-.1.5-.1c.1-.1.2-.1.2-.2l-.6.2-.3.1c0 .1-.1.1-.2.3zM236.5 326.3h0zM11.7 109.7c0 .1 0 .1.1.2l.1.2c0 .1.1.3.1.4v.5c0 .2-.2.1-.3-.1-.2-.2-.5-.6-.7-.9-.2-.3-.4-.5-.5-.8-.4-.6-.7-1.1-.9-1.2s-.4.5-.1 2c0-.2.3.1.7.4.5.5.9 1.1 1.4 1.6.4.5.7.9.9.6.1-.3.1-.6 0-.9 0-.3-.1-.6-.2-.9 0-.2-.1-.4-.2-.6l-.4-.5zM576.5 200.2c.2.1.3.2.5.2l.8.2c-.6-.2-.7-.2-.9-.3-.1 0-.2-.1-.4-.1zM9.4 109.9l.2.6-.2-.6zM106.6 322.1c.3-.1.7-.2 1.3-.4-.5.1-.9.3-1.3.4zM203 326.3l-2.4-.1 2.4.1zM57.1 324.1h-3.6 3.6zM6.6 325.2c0 .1 0 .3.1.4.2.2.5.2.8.2-.2 0-.5 0-.7-.1-.2-.2-.2-.3-.2-.5zM569.4 4.7c1.1.1 1.8.2 2.4.2.7-.1 1.3-.1 2-.1.6.1.2.1-4.4-.1zM575.8 199.8c.3.1.5.2.7.4-.2-.1-.4-.3-.5-.6-.1 0-.2 0-.2.2zM55 326.8l-8.4.2c2.4-.1 5.5-.2 8.4-.2zM223.2 6.8h1.9-1.9zM21.9 328.1h-4.7c-.3 0-.7.1-1 .1l5.7-.1zM571.8 5z"/>
<path d="M100.1 10.4l.3.1.4.2c.3.2.7.4 1.1.6.8.4 1.7.9 2.7 1.5l.8.4 1.1.5c.7.3 1.4.6 2.2.7.8.3 1.6.5 2.5.6 1.2 0 2.4-.1 3.5-.5.6-.2 1.2-.4 1.8-.7.3-.1.6-.3.9-.5.3-.2.3-.2.4-.2l.3-.2c.8-.4 1.5-.8 2-1.1.1 0 .2-.1.3-.1l.2-.1c.1 0 .3-.1.4-.1.2 0 .4.1.6.1.7.1 1.4.3 2.7.5.6.1 1.1.1 1.7.1h1.4c.9 0 1.9-.1 2.7-.1 3.3-.2 6.8-.3 10.7-.7 1-.1 1.9-.3 2.9-.4 1-.2 1.5-.3 2.3-.4 1.6-.2 3.1-.4 4.7-.4 2.7-.1 5.3-.1 8-.1l.5-.4c.6-.2 2.3-.5 4.1-.6h.1c3.9.3 11-.6 10.3.4h-1.4c2.9 1 10.9.8 17.2.9.2 0 .3-.1.4-.2l.7-.8c.1-.1.3-.2.5-.2 16.5 1.7 43.2.6 52.3 1.2h.1c4-.3 9-.6 13-1.1l-.2.4c5.5-.5 9.5-.6 14-.7 4.5-.1 9.2-.1 16.1-.1l-2.8.2c1.9 0 3.6-.1 4.8-.1.4 0 .9 0 1.3.1.1 0 .2.1.3.1.2.1.3.2.4.4.6.7 1.3 1.5 2 2.4.4.4.7.9 1.1 1.4l.6.8.7 1c.2.4.4.9.6 1.3l.4.7.2.3.1.2h.2c1.1-.6 2.2-1.3 3.1-2.1.6-.6 1.2-1.2 1.6-1.8.9-1.2 1.5-2.6 2.2-3.6.6-.9 1.8-1.4 3.1-1.4 1.5-.1 3.2.1 4.9.1 3.4.1 6.9.1 10.3 0 3.7-.2 7.1-1.7 8.2 0l-.4-.2c-.3-.2-.7-.4-1.1-.5.6.1 1.1.4 1.3.8.4.8.7 1.6.8 2.5.1.4.3.8.5 1.3.4.4.9 1 1.3 1.4h.1c.4.2.9.4 1.4.5 1.5.2 3 .2 4.5-.1 1.2-.2 2.4-.5 3.6-.8 1-.3 1.9-.6 2.8-1.1.5-.3 1-.7 1.3-1.1.2-.2.1-.3-.1-.1.6-.5 1.1-1.1 1.4-1.8.3-.6.5-1.2.9-1.8.2-.6.7-1 1.3-1.3.9-.1 1.9-.1 2.7.2 1.2.2 2.3.4 3.5.5 2.3.2 4.6.4 6.4.4l-.9.2c3.1.1 4.7 0 6.6.1s4.1.1 8.4.3c2 .1 1.8.2-.9.1 6.8.4 5.3 0 13.5.3l-3.1.1c3.4.1 6.9.1 10.3 0 4.4 0 13 .1 14.2.3h.1c2.9-.2 5.9-.2 8.8-.2.6.1-.9.1-1.7.1 11.7 0 17.4-.2 25.5 0 .4.1.9.1 1.4.1-9.3 0-16.7-.1-16-.1 0 .2 7.5.3 1.5.4 6-.1 16.3-.3 23.6-.3h1-.8c1.7 0 3.2 0 4.6-.1h6c.9.1 8.2-.1 12-.1l.4-.1c.6-.1 4-.2-.1-.2.6 0-.7 0-3.2.1h-1.6.3l-9.3.2c2.9-.1 6-.2 10.1-.2l5.2-.3h.1c5.1.1 14.8.1 16.3.2 11.4-.3 26.8-.6 34-1.1 1.6-.1 3.3-.1 4.9 0-1.9.1-4.1.1-5.1.2 6.5-.2 19.2-.5 20.7-.6.9 0 1.9.1 2.7.5.1.1-.3-.1-.6-.1-.3-.1-.6-.1-.2 0 .4.1 1.7.3 3 2.2-.2-.3-.5-.6-.8-.9.6.7 1.1 1.5 1.5 2.4l.2.7.4.8c.2.4.5.8.8 1.2.2.3.6.3.9 0l.9-1.2.3-.5c.1-.2.1-.2.2-.3l.3-.6 1.2-2.4c.4-.8.9-1.5 1.4-2.1.5-.6 1.3-1 2.1-1.2 1.9-.2 3.9.2 6 .4 2.1.1 4.1.1 6.3.1 1.1 0 2.1-.1 3.2-.2s2.1-.3 3.2-.3c.4-.1.9 0 1.2.3.2.3.3.7.3 1.1-.1.9-.3 1.8-.6 2.6-.3.9-.6 1.8-.8 2.7v.1c-.1 1-.1 1.9-.1 2.9s0 2-.2 3l-.3 1.5c-.1.5-.2 1.1-.3 1.6.1-.8.2-1.5.4-2.3-.5 2.8-.7 5.6-.6 8.4 0 2.8.1 5.6.2 8.5.2 5.7.8 11.4 1 17 .1 2.8.2 5.7.2 8.5s-.2 5.7-.3 8.5c-.1 2.8.5 5.7.2 8.4s-1.5 5.3-3.3 7.6c-.5.7-1 1.2-1.4 1.8l-1.3 1.5-.7.9-.2.2c0 .1.1.1.2.1l.5.2 1.6.7c.7.3 1.3.6 1.8 1.1l.1.1c.4.6.7 1.3.6 2v.1l-.3 1.2v.1c-.2 2.1-.3 4.3-.3 6.4 0 2.3-.1 4.4-.2 6.6-.1 2.1-.2 4.2-1.1 6.1-.4.9-1.6 1.4-2.7 2.3-.3.3-.5.6-.7.9-.1.3-.2.7-.2 1 0 .6 0 1.2.2 1.9.2 1.2.6 2.5.9 3.7.4 1.3.7 2.7.9 4v-1.5c.4 3.7 1.7 11.3 1.7 12.4v.4c.2.9.4 1.8.5 2.7l-.1.1c.6 3.4 1.1 6.8 1.3 10.2.1 4-.1 3.7-.3 3.8-.1.1-.1.3-.2 1.1 0 .6-.1 1.1-.3 1.7-.2.3-.4.6-.7.9-.5.3-1.1.5-1.8.7-.6.1-1.3.3-2.1.4-.4.1-.9.2-1.2.3l-1.2.2c-1.6.3-3.3.7-4.7 1-1.1.2-2.2.5-3.3.9-.2.1-.3.1-.5.2-.1.1-.2.1-.3.2-.1.1-.2.2-.2.4 0-.1 0-.2.1-.3.1-.2.1-.1.2-.2l.1-.1c.6-.2 1.2-.4 1.8-.5l1.8-.3c.7-.1 1.4-.2 2.1-.2-1.6.3-3.2.6-4.8 1l-.3.3-.2.1-.1.1h-.1c-.1 0 0-.1-.1-.1h.3l.1.1.1.1c.1 0 .1 0 .2-.1v-.2l-.7.1h.1l.1.1.3.3.1.1h.2l1.4-.2 6.3-1c.7-.1 1.4-.3 2.1-.5l2-.5c.8-.2 1.5-.4 2.2-.7.8-.3 1.5-.8 2-1.4.6-.7 1-1.6 1.1-2.5 0 .6-.1 1.1-.4 1.7-.3.6-.7 1.1-1.3 1.6-1.1.7-2.4 1.2-3.8 1.4 1.1-.1 2.1-.4 3-.8 1-.4 1.7-1.1 2.1-2 .3-.7.4-1.4.4-2.1 0-.6-.1-1.1-.1-1.7v-.1c.1-.9.2-1.8.2-2.7v-.1c-.3-2.2-.6-4.4-1-6.6.1-.8.7 3 .3-1.5-.6-3.1 0 3-.8-2.1v-.1c0-2-.3-4-.8-6 0-.5.2.2.5 1.8-.7-3.3-1.5-8.7-1.9-10.5v-.1c0-.4 0-.8-.1-1.4-.1-.6-.2-1.2-.4-1.8-.3-1.2-.7-2.5-1-3.6-.3-.9-.4-1.9-.3-2.8 0-.2.1-.4.2-.5.1-.1.2-.1.2-.1.3-.3.6-.6 1-.9.4-.3.7-.6 1-.9.4-.4.7-.8.9-1.3.6-1.8.9-3.6.8-5.5.1 2.9.2-.1.4-3.5.1-3.5.3-7.3.5-6.6v-1.8l.2-2.4c.1-1 0-2-.4-3v-.1c-.3-.6-.8-1.1-1.4-1.4l-1.8-.9-.3-.1s-.1 0-.1-.1l.1-.1.8-.9c.8-.9 1.5-1.8 2.2-2.8 1.3-1.8 2.2-3.8 2.6-5.9-.1.7-.2 1.3-.5 1.9.6-1.5.9-3.1 1-4.7 0-1.2 0-2.2-.1-3.5v-.1c-.4-1.3-.5-2.7-.4-4l.1-6.8c.2-2.6.2-1.8.3-.6.1 1.2 0 2.9.2 2.1-.1.1 0-2.1-.2-4.1-.2-2-.2-3.9-.2-3 .1-3.8 0-3.4.1-5.3v-.3c-.3-.8-.2-3.7-.6-6.8-.2-5.6.2-1.5-.3-7.7 0-1.5.1-.9.2.2l.2 2.3c-.3-6.3-.4-3-.6-4.3-.3-7.6.1-3.5.1-6.1-.1-2.4-.1-4.4-.1-6.4 0-1 0-1.9.1-2.8.1-.9.3-1.8.4-2.6.1-.3.1-1 .1-.1.1-1.3 0-2.9 0-4.5s1-3.3 1.4-5.3c.1-.5.2-1.1.1-1.6 0-.2-.1-.3-.1-.5-.1-.2-.2-.3-.3-.5-.3-.3-.7-.5-1.2-.6-.7-.1-1.3-.1-2 0l-1.7.2c-2 .2-4.1.3-6.2.3-.5 0-.8-.1-1-.1 1.2.1 1.3.2 1.1.3-1.6 0-3.2-.1-4.8-.2-1.4-.2-2.5-.3-3.1-.4 2.2.2 2.4.2 3.4.3-1.2-.1-2.5-.3-3.8-.3-1.8-.1-.4-.2 1.3 0 1.2.2 2.5.3 3.8.3-1.6-.1-3.3-.4-5.1-.5-.9-.1-1.9 0-2.7.3h-.1c-.8.4-1.5.9-2 1.5-.8 1.2-1.5 2.4-2.1 3.7-.3.6-.6 1.2-.9 1.7-.2.3-.4.7-.7 1-.2-.3-.4-.6-.5-.9 0-.2.2.2.5.6.1-.1.3-.3.4-.5l.2-.3.2-.4c.4-.7.7-1.3.9-1.8.5-.9.5-1-.6.9.5-1.1 1.1-2.2 1.7-3.2.4-.5.8-1.1 1.3-1.5.5-.5 1.3-.9 2.1-1.1-.6.1-1.2.4-1.7.7-.3.2-.4.3-.3.2.1-.1.2-.2.4-.3.3-.2.6-.4.9-.5.6-.2 1.1-.3 1.7-.4h-.3c-.2 0-.5 0-.7.1-.4.1-.8.2-1.1.3-.7.3-1.2.8-1.7 1.3-.4.4-.7.9-1 1.3-.5.9-.9 1.6-1.2 2.3-.3.7-.6 1.3-.9 1.9l-.1.2-.1.1-.1-.1c0-.1 0 0-.2-.4-.3-.6-.7-1.3-1.1-2-.5-.9-1.3-1.6-2.2-2.2-.6-.3-1.3-.6-2-.7-.7-.1-1.5-.2-2.2-.2-2.6.1.8.1-1.7.3-16.2.5-12.8-.2-24.7.3-4.2.4-8.5.5-12.8.5l2.9-.3c-11.1.2-6.3.4-17.9.5 2.1-.1 8.7-.2 7-.2-7.5 0-5.3.2-11 .3h-.1l-1.2-.2h-.1c-11.7.2-24.6.6-37.6.8.7-.1 3-.1-.1-.2-8.2.1-17 0-25.7-.1S408 7.5 400 7.4l-6.1.1c-1.4 0-2.6-.1-1.1-.1-6.2-.2-.3.1-3.3.1-3.5-.1-4.6-.2-2.4-.2-2.7 0-6-.1-9.6-.2s-7.5-.3-11.4-.5c-3.8-.1-7.6-.4-11.4-.9-.9-.1-1.7-.3-2.6-.5-.9-.2-1.9-.2-2.9-.2-.6.1-1.1.3-1.5.5-.4.2-.7.5-1 .9-.4.6-.8 1.1-1.1 1.8.3-.6.6-1.2 1-1.8-.5.7-1 1.5-1.3 2.4-.2.6-.5 1.1-.9 1.6-.6.8-1.5 1.3-2.5 1.7-1.1.4-2.3.7-3.5 1-.7.1-1.5.2-2.2.3-.8.1-1.6 0-2.3-.3.4.1.8.2 1.2.2-1.2-.1-1.6-.3-1.9-1.1-.4-.8-.4-1.8-.9-2.8-.2-.6-.5-1.1-1-1.6s-1.2-.8-2-1c-.7-.2-1.5-.2-2.2-.1-.7.1-1.3.1-1.9.2-1.2.2-2.3.4-3.5.5-1.2.1-2.4.1-3.7.1-2.4 0-4.9 0-7.3-.1-1.2-.1-2.4-.1-3.7-.1-1.4 0-2.7.2-3.9.8h-.1c-1 .6-1.9 1.5-2.3 2.5-.5.8-1 1.6-1.4 2.4-.2.4-.5.7-.8 1-.1.2-.3.3-.4.5l-.2.2-.1.1c-.1.1-.3.2-.5.3l-.3-.1c0-.1-.1-.1-.1-.2l-.3-.4-.6-1-1.2-2s0-.1-.1-.1c-.3-.3-.6-.7-.9-1.1-.4-.5-.7-1.1-1.4-1.9-.4-.5-1-.9-1.7-1.1-.6-.2-1.3-.3-2-.4-1.2-.1-2.4-.1-3.5-.1-4.4-.1-8.7-.2-9.6.1h-.2c-5.4-.2-7.5-.3-10-.3h-4.8c-2.1 0-4.8.2-8.7.3-4.1.1-6.1.7-11.2.8l-.1-.4c-2.3.1-4.6.3-6.9.4h-.1L230 7h-.1l-4.8-.1c1.9.1 4.1.4 3.8.5-7.3 0-17.7-1.1-18.5-1.5h-.2c-5.9-.2-11.8-.3-17.8-.4.4-.2 3.4-.2 5.8-.2-9.6.2-1.7-.8-10.5-.6 1.2.2-.7.4-.9.5-7.2-.7-14.4-1.2-21.6-1.3l1.4-.5c-6.6-.4-13.8-.9-21.7 0-1 .1-2 .3-3 .4-.7.1-1.5.2-2.3.3-1.6.2-3.3.3-5.1.3-3.5.1-8 .5-9.6.1.3.1.5.1.6.2.1 0 0 .1.3.1.3.1.6.2.9.2.5.2.7.3.6.5-.1.2-.4.3-1 .4-.7.1-1.3.1-2 0-.2-.2-.5-.4-.7-.7-.2-.1-.4-.3-.6-.4l-.7-.4c-1.2 0-1.3.1-1 .2l1.7.4c.2 0 .4.1.6.2.1.1.1.1 0 .1h-.9c-.8-.1-1.6 0-2.4 0h-.3c-1.3.2-2.6.5-3.8.9-.7.2-.9.1-.9 0s.2-.5 1-1c.9-.6 2-1 3.1-1.2-1 .2-1.9.4-2.8.8-.4.2-.9.4-1.3.6s-.7.4-.9.5c-.6.4-1 .7-1.5 1l-.6.4-.2.2c-.1-.1-.2-.3-.2-.4 0 0 .1-.1.1-.2.1-.1.1-.3.2-.4l-.3.3-.2.1V7l-.1.1c-.1.1-.3.1-.4 0-.1-.1-.2-.2-.2-.3 0-.1 0-.1-.1-.1l-.8-.6c-.6-.4-1.3-.9-2-1.2-.8-.5-1.7-.8-2.7-1.1l-.3-.5c-2.1-.9-4.3-1.5-6.6-1.8-1.7-.3-3.5-.5-5.3-.6-3.2-.2-6-.2-8.6-.2-2.6 0-5 .1-7.4.1-2.3 0-5-.1-7.9-.1-.1 0-.3 0-.4.1-.7.8-5.1.5-8.5 1.2h-.1c-4.4-.3-9.1-.7-14-1C41.2.6 36.1.5 30.7.5c-7.5.5-2.2.8-5.6 1.4-.7-1-11.4-.9-5.8-1.6h-5.8C12.4.2 11.3.1 10.3 0 8.4-.1 6.6 0 4.8.5 3.2.9 1.9 1.9 1.2 3.1.5 4.4.1 5.9.2 7.3c0 .8.1 1.7.2 2.5l.1 1.8c.2 2.4.7 5.1 1.2 8.2.3-1.4.3-3 .8-2.2.4 2.4 0 5.3-.5 5l-.1-.6c.6 3.7.7 7.5.4 11.3-.2 4-.7 8.1-1.1 12.1s-.9 7.9-1 11.5c-.2 3.4-.1 6.7.5 10l-.1-.7c.4 4 .9 8 1.4 12.1 0 5.5-.9-3.3-1.4.8C1.5 84.5 2 90 1.9 95.5c0 2.4 0 4.8.1 7.1 0 1.2 0 2.4.2 3.8.1 1.6.6 3.1 1.3 4.6.1.6.4 1.5.4 1.8.1.4.1.9.1 1.3 0 .9 0 2.2-.1 3.9s0 3.5 0 5.3l.1 2.8.1 1.4v1.6c.1.6.2 1.1.2 1.6l.1.7v.1c.1.2.1.3 0 .5-.1 0-.2.1-.3.1h.1c-.3.1-.5.3-.8.5-.2.2-.4.3-.5.5-.1.1-.2.3-.3.4l-.2.2c-.1.2-.2.3-.2.4-.1.2-.2.4-.3.5-.1.2-.1.3-.2.5 0 .1-.1.3-.1.4-.1.7-.1 1.3-.1 2 0 .5.1 1 .1 1.5s.1 1 .1 1.2v4c0 1.7-.1 3.3-.3 4.7l.6-.7c.3 1 .3 2 .2 3.1-.2.9-.3 1.9-.2 2.9.2-.6.2-1.2.3-1.8.1-.6.1-.9.4.1.1.9.3 1.8.5 2.7.3 1.1.9 2.2 1.7 3.1 1.4 1.4 3 2.7 4.8 3.8l1 .6.3.2c.2.1.4.3.6.5s.4.4.2.6c-.2.2-.4.3-.7.4-.3.1-.5.2-.8.2l-2.8.5c-.8.1-1.5.4-2.2.7-.7.4-1.2.9-1.5 1.4-.4.6-.6 1.2-.8 1.9-.1.3-.2.7-.2 1l-.1.5v.3c-.2 1.7-.3 3.4-.3 5.1l.1 4.8-.4 19.2c-.2 6.3-.3 12.6-.6 18.8-.2 4.5.3 5.8.8 7.5s.8 3.5.2 9.3l-.8-3.3.2 3.5.1 1.8c0 .7.2 1.5.4 2.2.3 1 .9 1.9 1.8 2.6.6.5 1.3 1 2 1.4.8.5 1.3.7 1.8 1 .4.2.8.5 1.1.8l.3.3c0 .1.1.1.1.2s0 .3-.1.4c-.1.1-.2.3-.3.4-.2.2-.3.4-.6.6l-1.4 1.3c-.6.6-1.1 1.2-1.5 1.9-.1.2-.3.5-.4.7l-.2.5c-.1.3-.2.7-.3 1-.3 1.3-.6 2.5-.7 3.8-.2 2.5-.2 4.9-.2 7.2v3.4c0 1.1-.1 2.4-.1 3.5 0 4.7.1 9.3.3 13.8-.3-.9-.4-1.9-.4-2.8-.4 3.8.1 14.1.5 14.2 0 2.8-.3.7-.5 2.4-.1 1.9 0 4.3 0 6.4.1 1.7-.1 3.4-.4 5.1-.1.3-.1-1.1 0-1.8 0 1.2-.2 4.2-.3 6.5-.1 2.3 0 4.1.3 2.8-.1 1.7-.2 3.3-.2 5v2.5c0 .7.1 1.3.4 1.9.3.6.8 1.1 1.5 1.3 1.3.5 3.5.2 4.1.2l2.8-.1c1.8-.1 3.6-.1 5.3-.2h.1c4.2-.6 13.6-.6 15.7-1.1h.3c.5.2 3.9.1 7.8 0 4.4-.1 9.7-.4 12.4-.6-1.8.2 4.7 0 2.6.3 4.9-.1 9.4-.3 10.6-.5l.9-.1c5.4.1 10.8-.1 15.7-.2 2.5-.1 4.9-.2 7-.1 1.8.1 3.7.2 5.5.5h.1c1.1 0 2.3.1 3.5.1 1.2 0 2.5-.1 3.7-.3h.1c2.3-.6 4.4-1.4 6.3-2.4.9-.4 1.8-.8 2.7-1 .9-.2 1.9-.4 2.9-.4.9 0 1.8.1 2.7.3.9.3 1.8.7 2.6 1.1.9.5 1.8.9 2.7 1.4.9.5 1.9.9 3 1.3 1.1.3 2.2.5 3.4.6 1.1.1 2.2.1 3.3 0 4.1-.1 8.2.1 12.3.3-.3.2-4.9-.1-9.2-.1h-3.1c-1 0-2 .1-2.8 0-1.7 0-2.8-.2-2.6-.1 2 .3 4 .4 5.9.2 1.7-.1 3.4-.1 5 0 3.3.1 6.3.2 9.4.3 6.2.1 12.3.1 20 .1 4 0-2.3.2-3.6.2 7.8-.1 15.3-.2 22.6-.1l21.4.2h-3c2.7 0 6.4.2 6.1 0h-2.7c-4.4-.3 10.9-.3 11.4-.4-4.7.4 13.7.3 6.3.7 1.8 0 4.1 0 3.7-.1 2.7.1 3.5.1.8.2 9.8 0 6.3-.1 15.2-.1 0 .1-1.8.1-2.7.2 4.5-.1 9-.3 16.5-.2-.5 0 .4.1-1.8.1 6.4 0 11.9-.1 17.6-.2l4.3-.1c1.5 0 2.9 0 4.4.1 1.6.1 3.2.1 4.8-.1.9-.1 1.8-.4 2.5-.9.4-.3.7-.7.8-1.1l.4-1c-.3 1.6 0 .8.5-.7v-.1c.2-.7.4-1.5.6-2.2.1-.4.3-.8.7-1.2.9-1.8 1.2-1.9 2.6 0-.1-.3-.3-.6-.6-.9-.2-.2-.3-.4-.6-.6.2.1.4.2.5.4.2.2.4.4.6.7.4.5.6 1.1 1 1.7.3.6.7 1.2 1.2 1.8.3.3.6.5 1 .8.3.2.7.4 1.1.5.8.3 1.6.5 2.4.6.8 0 1.6 0 2.4-.1 1.5-.2 2.9-.4 4.3-.7-1.7.4-3.2.7-4.9.9 1.1-.1 2.1-.3 3.2-.5s2.1-.4 3.1-.6c.9-.3 1.8-.5 2.7-.5h.1c.9 0 1.8.2 2.6.4-.9-.3-2-.5-3-.5h-.1l-3.3.6c1.7-.4 2.3-.7 2.7-.8.3-.1.3-.2.3-.2s.1-.1.7-.1c1.3 0 2.6.3 3.8.7.9.4 1.9.6 2.9.9 1.2.4 2.4.7 3.7.9 1.3.2 2.5.3 3.3.4 1.7-.1 3.4 0 5 .4.9.2 1.8.6 2.6 1.1.5.3 1.1.4 1.7.5.6.1 1.2.1 1.8.2 1.3.2-1.1.5-.2.7 1.3-.1 2.6-.1 3.9-.1 1.6 0 3.6.2 5.5.4s4 .3 5.9.4c1.5 0 3 0 4.4-.1-1.4.1-1.5.4-1 .5.9-.1 1.8-.2 2.7-.4h.1c3 .1 3.5.2 3 .5 4.7 0 3.9-.2 3.4-.4-.5-.1-.8-.3 4.7-.2-.9.1-.4.1-2.2.2 5.5 0 10.9-.3 16.1-.5 5.2-.2 10.3-.3 15.4-.2 3 .8-8.8.3-5.4.9 7.3-.1 14.9-.4 22.4-.6 7.5-.3 15-.5 22.1-.4l-2.6-.1c1-.7 3.6-.6 6.9-.3 3.6.4 7.2.5 10.8.3-1.7.1-2.3.9-1.8.7 9.7.3 19.8-.4 34.5-1l-1.8.5c2.9.2 6.6.3 10.4.4.9 0 2 .1 2.6.1.4 0 2.1.2 3 .2l5.1.3h.1c1.4-.3 3.7-.3 3.9-.6.1-.2.2-.3.4-.3 9.1 1.6 17.9 1.4 26.4 1 8.8-.4 17.4-.8 25.8.7-2 0-4.8.4-3.2.5l7.2-.1 3.6-.1h4.5c-.7-.4-1.5-.7-2.4-.9l-1.5-.3c-.6-.1-1.3-.3-1.9-.4.6-.2 1.2-.3 1.8-.4.7-.1 1.6-.2 2.5-.3.9-.1 1.8-.1 2.7-.1.9 0 1.8.1 2.7.2-3 0-3 .5-1.3 1 1 .3 2 .5 3 .5.6 0 1.1 0 1.6-.1s.9-.3 1.3-.5c-.6.1-.2-.8-.7-.9.8-.6 1.3-1.3 1.5-2.1.2-1.3-.6-1.7-1.2-2.5-.4-.5-.8-1.1-1-1.8-.2-.5-.3-1-.4-1.5-.1-.7-.1-1.4 0-2.1l.7.4c-.6-3-.6-6 .1-9 1.7-1.2 0 3.3 1.2 3.6.3-2.3.3-4.6.1-6.9-.1-2.3-.5-4.5.3-6.6.2 1.1.3 2.3.3 3.4.1 1.2 0 2.5 0 3.5.5-.9.9-1.9 1.3-2.8.2-.6.4-1.3.5-1.9.2-1.1.2-2.1.3-3.8v.3c.3-2.6.5-5.3.7-7.9l-.4 2c-3.8-5.8-.9-11.8-3.6-19.6 2.3 6.9 1.5 2.2 2.6 1.8.2-.1.4-.2.4-.4.2-1.5.5-3.4.7-3.8.1-.2.2-.3.1-.5-1.1-3.4.4-5.8-1.4-10.5-.1-.1-.1-.3 0-.4.2-.7-.2-3.7.9-3-.4-2.3-.5-2.1-.7-1.3-.1.6-1 .6-1.1 0-.5-3.2-.3-6.8-.3-10.6.2-5.1-.1-10.1-1.1-15.2-1.1-9.1-2.4-10.8-3-19.3.1-.7.3-.9.4-.8.4.3.9.1.9-.4 0-1 0-1.9-.1-2.9-.1-1.1-.5-2.2-1.2-3.2 0 0 0-.1-.1-.1-.4-.5-1-.9-1.7-1.2-.7-.3-1.4-.4-2.1-.6.5 0 .5-.1.3-.2-.4-.2-.7-.4-1-.7-.4-.3-.7-.6-.8-1-.1-.3-.2-.5-.3-.8-.1-.5-.1-1.4 1.4-3.3-.1.4-.2.8-.3 1.4 0 .3-.1.5-.1.9v.9l.3-1.2c.2-.4.4-.9.6-1.3.5-.9 1.1-1.8 1.7-2.6.6-.9 1.3-1.8 2-2.8.6-1 1-2.2 1.1-3.3.3-.6.4.1.2 1.2-.1.6-.3 1.2-.6 1.8-.3.6-.6 1.1-.8 1.5 1-1.3 1.6-2.8 1.8-4.3.1-1.5.1-2.9-.1-4.4-.2-1.4-.3-2.5-.4-3.5 0-.7-.1-1.4-.3-2.1-.1 1-.2 2-.2 3.1 0-1.8.4-.9.6.4.3 1.5.4 3 .3 4.6 0 .6-.2 1.2-.6 1.7.1-1 .1-2.1-.1-3.1-.3.8-.3 2-.6 3.3-.1.7-.4 1.5-.7 2.2-.4.8-.9 1.5-1.5 2.2-1.2 1.5-2.2 3-3.1 4.6-.4.7-.6 1.5-.8 2.3-.1.6 0 1.3.3 1.9-.8-.5-1.2-1.3-1.3-2.1 0 1.1.1 2.2 1.1 2.8s2.2.4 3.8.9c.8.5 1.1 1.1.9 1.2-.2.1-.7-.3-2.4-.7.9.3 1.6.8 2.1 1.4.3.4.5.8.7 1.3.4 1.1.5 2.4.1 3.5-.1.4-.2.2-.2-.2.1 1.4.1 2.8.3 4.3-.3-.8-1 .8-.7-2-.2 1.8-.3 3.5-.2 5.3.1 1.6.2 3 .3 4.2.3 2.5.5 4.4 0 5.8l-.1-.6c.3 5.3.6 5.6 1 5.5.4-.1.9-.5 1.7 3.3 0 .1 0 .3-.1.4-.9 1.6-1.7 3.2-2.7 4.8-.1.2-.1.6.1.7l.7.6c.1.1.2.3.2.4 0 1.2-.1 3-.6 2.6 1 4.1.6-.7 1.5 1.6-.5 2.6-.3 6.3-.1 9.5.2 3.1.2 5.8-.9 6.4 1.2 1.8.6-4.8 1.6.2 0 .2 0 .4-.2.6-.9.9-.8 2.4-.4 4.3.3 1.4.7 3.1.8 4.8 0 .7-1 .8-1.1.1-.3-1.4-.4-2.4-1 .5 0 .2 0 .3.1.5 2.1 2.9-.2 8.9 0 12.9 0 .2.1.3.3.4 1.6.8.8 8.9 1.2 15.4l-.1.3c-.1.2-.3.9-.4 1.8-.2 1.3-.5 2.9-1 4.9-.5 2-1.2 4.1-1.7 6.4l-.6 3.3c0 .5-.1 1-.1 1.5v1.5c-.1 0-.3-.1-.4-.1.1.1.3.2.4.2.1.1.3.2.4.3.3.3.5.6.7.9.5.8.8 1.8 1 2.7.1.5 0 .9-.1 1.4-.1.2-.2.4-.4.6-.2.2-.4.3-.7.4-1.1.1-2.2.1-3.3 0-.2-.3-.2-.8.1-1.1.2-.1.3-.2.6-.3.3-.1.6-.2.8-.4-.5.1-1 .1-1.5 0s-1-.1-1.5-.1c-.4.3-1 .5-1.5.6l-.6.1-1 .1c-.7 0-1.5.1-2.4.1l1.5-1.2c-7.2 0-14.5 1.1-23.5.5-.6 0-.9.7-.4 1 1.6 1 3.5 2.1-3.7 2.5-.4-.6-.7-1.6 2-1.8-1.1.2 5.7-.9-4.9.2l2.6-.6c.4-.1.6-.6.3-1-2.5-2.6 6.4 1.4 4.2-.4-.3-.3-5.6-1.7-5.7-1.3-.4 2.5-.2-1-.4 1.4 0 .3-4.6.3-4.3.3 1.1 0 2.8.3 3.9.1-3.5-.2-7.7-.6-9.7-1.1-.2-.1-.5.1-.6.3-.2.3-1 .6-3 .7-7.5 0-2.6-1-6.8-1.4h-.2c-1.8.5-5.9 0-6.6.9-.1.1-.3.2-.4.2-1.1 0-2.1-.3-2.9-.8-.1-.1-.2-.1-.3-.1-1.4.1-2.8.2-4.3.2h-7.4c-.5 0-.8 0-1.2.1-.6 0-1.2-2.1-1.7-2-.8.1-3-.3-1.9 0l-6 .4h-.1l-6.7-1.1h-.1l-19.1-.6h-.1c-12.8 1-7.6 3.7-20.3 4.4h-7c-7.5.5 5.8.3.4 1-1.8 0-4.3-.3-4.5-.6-.1-.1-.3-.1-.4-.1-4.7.4-9.5.5-14.2.3 5.8-.6-2-.3 6-.5-7.5 0-9.2-.3-17.3.5 2.7-.7-5.7-.5-9.3-.3l5.3.2c-4 .2-7.5.2-11.1.3l1.9-.7c-7.7-.2-14.7.7-21.1 1.2-3.2.3-6.3.4-9.3.5-2.9.1-5.9-.1-8.8-.5-2 0 0 .3 2.1.4s4.3.2 2.5.4c-3.4-.2-6.7-.5-10-1-1.5-.2-2.9-.3-4-.4-.6 0-1.1-.1-1.5-.1h-1c-.8 0-1.6-.1-2.3-.3l-1-.5c-.4-.2-.8-.4-1.2-.5-.4-.1-.7-.2-1.1-.3l-.5-.1-.6-.1c-.7-.1-1.3-.1-2-.1-1.2 0-2.4.1-3.9.1-.8 0-1.6-.1-2.4-.2-1-.2-2.1-.4-3.1-.7.6.2 1.1.5.6.5-.6 0-1.1-.1-1.7-.3-.9-.2-2.2-.6-4-.9-.8-.2-1.7-.2-2.5-.2-.6.1-1.3.2-1.9.3-.7.2-1.4.3-2.1.3-.7 0-.1-.2 1.9-.8.6-.2 1.3-.3 2-.4h.7c1.2 0 2.3.1 3.5.4.7.1.8.1-.6-.3-.3 0-.7-.1-1-.1-.6-.1-1.2-.2-1.8-.2-.8 0-1.5.1-2.2.3-1.3.3-2.6.6-3.9.8-1.3.2-2.3.4-2.9.4-.6 0-.7 0-.2-.1-.7.1-1.3.1-2 0-.3 0-.3 0-.1.1.4.1.8.2 1.2.2.8 0 1.6-.1 2.4-.2-.9.2-1.9.2-2.9.2-.8-.1-1.6-.3-2.2-.7-1.2-.6-1.6-1.8-2.4-3.2-.2-.4-.5-.7-.7-1.1-.3-.4-.7-.8-1.2-1.1-.3-.2-.6-.3-.9-.5-.3-.1-.5-.2-.8-.3h-.3c-.6.2-1.2.5-1.6.8l-.7.7c-.1.2-.3.4-.4.6-.2.4-.4.8-.6 1.3-.3.9-.5 1.8-.8 2.6.3-1.2.8-2.2.5-1.1l-.4 1.7-.5 1.4c-.1.2-.2.5-.5.6-.2.1-.5.3-.8.3-.3.1-.5.2-.8.2-.2 0-.4.1-.5.1l-.8.1c-.9.1-1.3.2-6 .1-5.3-.1 1.9-.4-7.5-.2-5.7-.1-1.2-.3 1.1-.4-8.5.2-15.9-.1-20.8-.1l4.5-.1c-2.7.1-4.9.1-7.1.1l2.6.2c-2.6 0-4.9 0-4.8-.1-2.7.1 2.1.3-3.3.5-3.5-.1-10.7.1-11.9-.2 11.1.1-1.2-.2 8.1-.2h-6.6c-.4 0 .4 0 1.1-.1-10.6-.3-4.9.2-15.8.1 1.4-.1-2.5-.3-4.3-.3 4.4.1 2.1.2-1.9.3-7-.2-7.6-.1-11.3-.1l4.2.1c-1.4.1-4.9 0-9.9 0-.4-.1 4.4 0 2.7-.1-5.5.1-12.3-.4-19.9-.3-3.5-.1-.3-.2-3.4-.3-8.5.2-9.2-.1-18.2 0 2.6.2 3 .2-3.3.3 4.9 0 9.8 0 14.7-.1l-9.4.3c4.4 0 9.4-.1 12-.1-4.5.2-4 .1-1.9.3-6.1-.2-12 .2-19-.1l.2-.5c-5.3-.2-9.9-.5-15-.6h-4c-1.3.1-2.7.1-4 0-1.4-.1-2.7-.5-3.8-1.1-.6-.3-1.3-.7-2-1s-1.3-.7-2.1-1.1l1.8 1 1.8 1c-.6-.3-1.3-.6-1.9-.9-.8-.4-1.7-.9-2.8-1.4-1.2-.6-2.5-1-3.8-1.1-1.3-.1-2.6 0-3.9.2.2-.1-.5-.1-1.4.1-1 .2-2 .5-3 .9-.4.2-.8.5-1.3.6-.9.4-1.9.8-3 1.2-1.1.3-2.2.5-3.4.5-.7 0-1.4.1-2.2.2h-.1l-6-.6c-2.3-.1-4.6-.1-6.9 0-1.9.1-3.4.1-5 .2-3.1.2-6.2.3-11.5.4 3.2-.3-1.6-.4 5.5-.7-2.3-.1-4.5 0-6.8.2h-.1c-2.1-.1-9.8.5-13 .4h-.1c-2 .3-3.9.4-5.9.4-.4 0 0-.1 0-.1s-6.2.3-2.7.5c-6.9-.2-13.7-.1-20.6.4-3.7.2-7.4.4-10.8.5-1.7.1-3.3.1-4.7.1H7.5c-.4 0-.8-.1-.9-.3-.1-.2-.2-.4-.2-.6v-.8l.1-2.4c0-1.6.1-3.3.1-5 0-3.3.3-6.5.6-9.3.1.4.2 0 0 1.1.4-2.1.4-4.3 0-6.4-.4-2.4-.5-4.8-.3-7.2.6-4.5.3 4.7.6 1.9 1.3-1.2-.1-10.6.7-16.5l.1 1.4c.2-2.7.2-5.4 0-8.1 0-1.5-.1-3.2-.1-4.9l.1-5.4s.1.4.2 0c-.2-1.3-.3-2.8-.4-4.5-.1-1.8.1-3.6.5-5.4.1-.5.3-.9.4-1.3.2-.4.4-.8.8-1.1.7-.8 1.5-1.5 2.3-2.4.2-.2.4-.4.5-.7.7-.9.7-2.1.2-3.1-.4-.8-1.1-1.5-1.9-2 1 .4 1.8 1.1 2.3 1.9.2.4.4.3.1-.6-.3-.5-.8-.9-1.3-1.2-.2-.1-.3 0-.5 0s-.4-.1-1.1-.4c-1.1-.5-2.2-1.1-3.2-1.8-.5-.4-.8-.8-1-1.3v-.2c0-.6 0-1.2.2-1.9 0-1 .3-2.1.8-3v3c0 .4 0 .9.1 1.3 0 .3.2.6.4.9-.1-.6 0-2.6-.1-4.6-.1-1.9-.2-3.9-.1-5.4l.4.4c0-2.3 0-4-.1-5.4-.1-1.5-.1-2.6-.1-3.9-.1-2.4-.2-4.9-.1-9.9l-.3 1c-.9-5.3.7-4.5 0-9.7 0-.1 0-.3.1-.4l.9-1.3c.1-.1.1-.2.1-.3-.2-3.7-.8-12.4-.9-18.7.5 2.5.8 5 .9 7.5l.6 8.2c.1-3.5.2-12-.3-13.8.2 1.5.2 3.1.1 4.6-.2-1.1-.4-2.2-.5-3.5-.1-1.3-.2-2.6-.4-4.1-.2-1.4-.3-2.9-.4-4.5v-2.4c0-.4 0-.8.1-1.2.1-.4.1-.9.2-1.2.3.2.5.1.7-.2.2-.2.4-.6.8-1 .3-.1.7-.2 1-.2l.6-.1 1-.2c2.2-.3 4.4-1 6.2-2.1.9-.5 1.6-1.2 2-2 .2-.4.2-.9 0-1.3-.1-.4-.3-.7-.5-1.1-.6-.8-1.4-1.5-2.2-2.2-.4-.4-.9-.7-1.3-1l-1.2-.9c-1-.7-1.9-1.5-2.8-2.4-.3-.3-.5-.6-.7-1-.1-.1-.1-.2-.1-.4v-.3c-.6-1.1-.9-2.2-.9-3.4l-.2-2.3v-2.3-7.1-2.3c0-.3 0-.6.1-.8h-.4l-.6-.1-.6-.1-.5-.1-.5-.1-.2-.1 2.4.8-.7-.3c-.4-.2-.9-.3-1.3-.5-.3-.1-.5-.3-.8-.4l-.1-.1c-.5-.4 4.1 3.7 2.2 2v.2c0 .1-.1.1-.1.2h.1c.2-.1.3-.1.5-.1.2-.1.3-.1.5-.2.1-.1.2-.1.2-.2l.3-.1c.3 0 .4-.2.6-.3.2-.1.6-.4.8-.5.3-.2.5-.5.6-.8.6-1.3.9-2.6.8-4 0-.8-.1-1.1-.1-1.6l-.1-1.2.1-5v-3.4c0-.4-.5-.6-.9-.4-.3.1-.3-.6-.3-1.6 0-.8 0-1.7-.2-2.5-.1-.5-.3-.9-.7-1-.3 0-.4-.3-.5-.6-.2-1.1-.5-2.2-1-3.3-.2-.4-.4-.8-.5-1.3-.4-1.5-.4-3-.2-4.5l.7-5.1c.3-1.2.5-.4.6.7.1 1.1.2 2.5.5 2.3.1-7.1.9-3.6 1.5-7.4 0-.2 0-.5-.2-.6-.6-.2-.9-3.4-.7-6.9l-1 6C9 84 12.4 85.4 10.9 75l.8 3.3c-.3-2.6-.4-7.5-.5-12.4-.2-4.9-.3-9.7-1.3-12.3.2-.5.5-1.1.8-1.2.3 0 .5-.2.5-.4.2-5.9 0-12.3-.3-18.5l-.5-9.9c-.2-3.2-.5-6.1-.4-8.5l.7.9c-.2-1.2-.6-2.1-.8-3.2-.1-.5-.2-1.1-.2-1.6v-.9c0-.1 0-.2.1-.4 0-.1.1-.1.1-.2.3.1.7.3.7 0-.1-.1-.2-.3-.3-.5-.2-.1-.3-.4-.3-.7 0-.4.5-.5.9-.5s.8 0 1.2.2c-.3.1-.6.3-.8.5l.7.1.3.1h.4c.2 0 .9.1 1 .1h5.2c3.2-.1 6.1-.3 9-.6 5.7-.6 11.4-1 17.2-1.2.2 0 .4.1.5.3C46.8 8.9 58 9.6 63.8 10l-.2.2c4.6.1 8.7.2 12.8.1 4.3-.1 8-.4 11.7-.5M451 8h3.8-3.8zm-15.6 0h6.8c.6.1 0 .1-1.6.1.8 0-2.9 0-5.2-.1zm33.1 1c-1.2.1-2.4.1-3.7 0l4.3-.1h.3c-.2 0-.5.1-.9.1z"/>
<path d="M473 8.7h1-1.5l-.9.1 1.4-.1zM495.6 325.6h-.3c.2 0 .5.1.7.1-.2 0-.3-.1-.4-.1zM240.5 7.1l.1.1 1.3-.1zM583.9 330.1c.2 0 .6-.2 1-.7-.1-.1-.5.3-1 .7zM586.9 299.1l.5-4.2c-.3 1.8-.4 3.1-.5 4.2zM587.1 276.2c-.2-.2-.4-.3-.6-.4l.6.4zM205 327.6h0zM328.1 326.3c-1.5.1-3 0-4.5-.3 1 .2 2.1.3 3.2.4.8.1 1.2 0 1.3-.1zM56 326.7h-1 1zM317.5 324.4c2 .7 4 1.2 6.1 1.6-2-.3-4.2-1.1-6.1-1.6zM582.5 181.5v-1s-.1 0-.1-.1c0 .3.1.7.1 1.1zM582.4 180.3l-.1-1.2c0 .4 0 .8.1 1.2zM582.2 176.5l.1 2.6c.1-.9 0-1.7-.1-2.6zM583 207.6l.3.4c0-.2-.1-.4-.3-.4z"/>
<path d="M583.5 216.8c0-1.1.1-2.5.1-4 .1-1.5.1-3 0-4.6l-.3-.3c.2 1.4.2 2.8-.1 4.2l-.1 1.3v1.3c.1.7.2 1.4.4 2.1zM579.7 255.2l.1-7.7c-.4 1.4-1.1 3.1-1.3-.4-1.2 9.8 1.1-2 1.2 8.1zM579.9 279c-.4-4.1-.8.1-1.1-.1.5 2.5.7 3.1 1.1.1zM427.8 326l.5-.7c-4 .3 0 .3-.5.7zM386.5 329.7l3.9.3 1.8-.5zM361.9 327.3l1.7-.1c-2.2.1-4.4.2-6.6.2 1.7 0 3.3-.1 4.9-.1zM13.7 325.2l1.2.4c2.7-.2 3.2-.7-1.2-.4zM7.7 211.8c.6-2.3.8-4.7.5-7-.1 2.8-.6 5.6-.5 7zM198.8 10.3l-3.2.2 6-.1z"/>
</svg>