<svg viewBox="0 0 126 10"  fill="none" xmlns="http://www.w3.org/2000/svg">
<path d="M68.3527 9.31591C68.9458 9.0038 69.0706 7.81777 68.54 7.28717C68.3215 7.06869 69.0706 7.28717 70.1318 7.72413C74.002 9.25349 77.3728 8.94137 81.1494 6.66295L82.9284 5.57055L84.5202 6.10114C86.4865 6.75658 88.328 6.56931 89.3579 5.60176C90.3567 4.66542 90.3567 3.5106 89.3579 3.13607C88.4216 2.79274 87.298 3.07365 87.298 3.66666C87.298 4.00999 87.5477 4.0412 88.3904 3.88514C89.3579 3.72908 89.4828 3.7603 89.4828 4.35331C89.4828 5.07117 88.0783 5.94509 86.9235 5.94509C85.7374 5.94509 83.8335 5.28965 83.9272 4.94632C84.1457 4.3221 89.9197 1.26339 91.0434 1.20097C93.7899 1.04491 95.3505 1.48187 96.8799 2.91759C97.8786 3.82272 97.8474 5.44571 96.8174 6.13236C95.9435 6.69416 94.0084 6.56931 93.4154 5.91388C93.1657 5.63297 93.2594 5.60176 93.7899 5.72661C94.9136 5.9763 95.4129 5.66419 95.4129 4.69663C95.4129 3.10486 93.3218 2.29336 91.9797 3.41697C91.2306 4.00999 91.2306 4.07241 91.6676 4.8839C92.4479 6.2572 93.7275 7.03748 95.3193 7.03748C96.5053 7.03748 96.8487 6.88143 97.6601 5.9763C98.3156 5.25844 98.5341 4.69663 98.4404 4.19725C98.378 3.79151 98.378 3.44818 98.4404 3.44818C99.0647 3.44818 102.592 4.8839 103.091 5.35207C103.84 6.06993 105.369 6.13235 106.212 5.47692C106.524 5.22723 107.18 5.00875 107.617 5.00875C108.085 5.00875 108.771 4.75906 109.177 4.41573C109.926 3.85393 109.989 3.85393 113.484 4.72785C117.386 5.72661 120.288 5.91388 122.161 5.32086C122.816 5.10238 124.533 4.13483 126 3.19849C126 2.6679 125.532 2.51186 125.532 2.51186C125.469 2.51186 125.345 2.13731 125.22 1.66914C124.97 0.639164 124.564 0.327048 123.503 0.35826C122.785 0.35826 122.785 0.389474 123.347 0.639164C125.376 1.45066 125.157 2.9488 122.91 4.13483C121.037 5.13359 118.946 5.25844 115.451 4.66542L113.453 4.3221L114.982 3.79151C115.794 3.47939 117.167 2.79274 118.01 2.26215C119.789 1.13854 120.132 1.07612 120.85 1.76277C121.131 2.04367 121.443 2.16852 121.568 2.04367C121.849 1.76277 120.476 0.639164 119.851 0.639164C119.602 0.639164 119.009 0.857643 118.541 1.10733C117.698 1.51308 117.635 1.51308 117.323 0.795221C116.73 -0.484443 114.046 -0.109907 114.608 1.13855C114.858 1.70035 114.858 1.70035 114.982 1.20097C115.138 0.576742 116.449 0.420685 116.793 0.951277C117.542 2.13731 115.232 3.44818 112.423 3.44818C110.894 3.44818 110.706 3.35455 110.332 2.60548C110.113 2.16852 109.708 1.70035 109.458 1.63793C109.052 1.48187 109.052 1.54429 109.427 2.01246C109.676 2.29336 109.801 2.57427 109.739 2.6679C109.676 2.73032 107.991 2.29336 106.025 1.70035C101.281 0.29584 99.564 0.108569 94.0396 0.389471C88.0159 0.670373 85.4877 1.07612 82.8348 2.19973L80.6812 3.10486L79.8385 2.51184C78.7461 1.66914 76.3428 1.26339 74.7823 1.60671C74.0956 1.76277 72.6599 2.35579 71.5987 2.88638C68.4776 4.47816 65.138 4.0412 64.6386 2.01246C64.545 1.60671 64.2641 1.26339 64.0144 1.26339C63.2341 1.26339 63.5462 2.1061 64.6698 3.10486C65.9495 4.22847 65.887 4.29089 64.3577 3.54182C63.3277 3.04243 63.2029 3.04243 62.1729 3.54182C60.6748 4.25968 60.6748 4.22846 61.892 3.01122C62.9844 1.91883 63.2341 1.26339 62.5474 1.26339C62.3602 1.26339 61.9856 1.63793 61.7984 2.13731C61.299 3.2297 60.4563 3.72908 58.7709 3.94756C57.5848 4.13483 56.9918 3.94756 54.5261 2.82396C51.842 1.5755 51.4986 1.51308 49.626 1.66914C48.2215 1.76277 47.3163 2.04367 46.6609 2.51184L45.7245 3.19849L43.9767 2.41821C42.978 1.98125 41.6983 1.51308 41.1053 1.32581C39.4823 0.826432 33.3337 0.327048 29.1826 0.327048C25.9366 0.327048 25.1563 0.451896 21.2549 1.54429C18.8828 2.23094 16.8541 2.73032 16.7917 2.63669C16.7293 2.57427 16.8541 2.29336 17.1038 2.01246C17.4783 1.54429 17.4783 1.48187 17.0726 1.63793C16.8229 1.70035 16.4172 2.16852 16.1987 2.60548C15.8241 3.38576 15.6369 3.44818 13.9202 3.44818C11.7355 3.44818 10.0501 2.82396 9.73794 1.91883C9.45704 1.04491 9.76915 0.639164 10.7055 0.639164C11.2049 0.639164 11.4546 0.826432 11.4546 1.16976C11.4546 1.5755 11.5482 1.60671 11.8291 1.32581C12.3597 0.795221 11.5794 0.0149362 10.487 0.0149362C9.83157 0.0149362 9.48824 0.233417 9.23855 0.764009C8.89523 1.51308 8.86401 1.51308 7.80283 1.0137C6.83527 0.54553 6.64803 0.54553 5.93017 0.951277C5.462 1.20097 5.05623 1.63793 4.9626 1.88762C4.83775 2.26215 4.90018 2.29336 5.24351 1.98125C5.99258 1.26339 7.49072 1.51308 9.05128 2.63669C9.89399 3.2297 11.1424 3.82272 11.8603 3.94756C13.1087 4.13483 13.14 4.16604 12.3909 4.44694C11.9539 4.63421 10.1437 4.82148 8.33344 4.8839C5.18109 5.03996 4.99383 5.00875 3.49568 4.16604C1.37331 2.98001 1.21725 1.41945 3.18356 0.639164C3.74536 0.389474 3.71415 0.35826 2.96508 0.35826C1.99753 0.327048 1.15482 1.04491 1.15482 1.91883C1.15482 2.23094 1.0612 2.51184 0.96756 2.51184C0.873924 2.51184 1.52588e-05 2.51184 1.52588e-05 2.98001C1.52588e-05 3.44818 5.58683 6.16357 9.86278 5.44571C11.517 5.1648 13.7018 4.66542 14.7317 4.35331C16.542 3.79151 16.6044 3.79151 17.2287 4.35331C17.572 4.66542 18.3211 5.03996 18.8829 5.1648C19.4447 5.28965 20.2561 5.57055 20.6931 5.78903C21.5982 6.2572 22.8779 6.06993 23.4085 5.35207C23.6269 5.07117 24.5633 4.57179 25.4996 4.29089C26.436 3.97877 27.4035 3.63545 27.5908 3.54182C27.8717 3.44818 27.9965 3.69787 27.9965 4.22846C27.9965 6.16357 29.6819 7.38081 31.8979 7.0687C33.8018 6.75658 35.4248 4.91511 34.8318 3.72908C34.2076 2.51184 31.6482 2.82396 31.1489 4.13483C30.7119 5.25844 31.3049 6.03872 32.3973 5.82024C32.9591 5.72661 33.2712 5.75782 33.1464 5.94509C32.8967 6.35083 30.9928 6.66295 30.2125 6.41326C29.838 6.31962 29.3074 5.88266 29.0577 5.44571C28.3086 4.3221 28.9329 3.10486 30.8055 2.07488C32.6782 1.04491 35.4872 0.951277 37.3911 1.85641C39.4199 2.85517 42.6658 4.82148 42.6658 5.07117C42.6658 5.38328 40.5435 5.94509 39.3886 5.94509C38.1714 5.94509 37.0478 5.1648 37.0478 4.3221C37.0478 3.76029 37.1726 3.72908 38.1714 3.91635C39.0453 4.07241 39.2638 4.00999 39.1702 3.69787C39.0765 3.44818 38.546 3.29213 37.7969 3.29213C36.6421 3.29213 36.5796 3.35455 36.486 4.29089C36.3924 5.07117 36.5484 5.38328 37.2039 5.82024C38.3899 6.60053 40.5123 6.72537 42.1352 6.10114L43.5398 5.57055L45.5997 6.819C46.7545 7.50565 48.4087 8.25472 49.2826 8.44199C51.4362 8.97258 54.4949 8.66047 56.6173 7.66171C57.5848 7.22475 58.2091 7.06869 58.053 7.25596C57.46 8.03625 57.3664 8.75411 57.8345 9.22227C58.49 9.87771 59.0206 9.81529 60.0505 8.94137C60.8308 8.28594 61.0181 8.25472 61.5487 8.62926C62.485 9.31591 65.138 9.12864 65.138 8.41078C65.138 8.22351 64.8259 8.28594 64.4201 8.4732C63.7335 8.84774 63.7335 8.84774 64.2953 8.1923L64.8883 7.53686L65.8246 8.37957C67.0107 9.44075 67.6973 9.69044 68.3527 9.31591ZM58.2715 8.25472C58.2715 8.00503 58.646 7.6305 59.083 7.44323C59.7384 7.13112 59.8008 7.03748 59.3639 6.88143C58.9581 6.72537 59.239 6.41326 60.5811 5.53934L62.329 4.35331L61.892 5.47692C60.7996 8.03624 58.2715 10.0026 58.2715 8.25472ZM66.1679 7.9114C65.4813 7.13112 64.2016 4.97754 64.2016 4.54058C64.2016 4.44694 64.9819 4.91511 65.9495 5.53934C67.2915 6.41326 67.5725 6.72537 67.1667 6.88143C66.7297 7.03748 66.7922 7.13112 67.4476 7.44323C67.8846 7.6305 68.2591 8.00503 68.2591 8.28594C68.2591 9.03501 67.0419 8.81653 66.1679 7.9114ZM62.485 7.50565C62.0481 6.66295 62.0481 6.47568 62.485 5.63297C62.7347 5.13359 62.9532 4.47816 62.9532 4.19725C62.9532 3.41697 63.3277 3.91635 63.9207 5.47692C64.4201 6.819 64.4201 6.91264 63.8271 7.66171C63.4838 8.09867 63.1717 8.44199 63.1092 8.44199C63.0156 8.44199 62.7659 8.03625 62.485 7.50565ZM61.5487 8.09867C61.2053 7.56808 61.5799 7.44323 62.0168 7.97382C62.2665 8.25472 62.2665 8.44199 62.0793 8.44199C61.892 8.44199 61.6423 8.28594 61.5487 8.09867ZM75.4377 7.72413C75.8747 7.50565 76.3428 6.91264 76.4989 6.38205C76.7486 5.57055 77.0919 5.32086 78.7773 4.72785C80.6188 4.0412 80.806 4.0412 81.5239 4.50937C81.9609 4.79027 82.3042 5.07117 82.3042 5.1648C82.3042 5.75782 76.8422 8.09867 75.4377 8.09867L74.6574 8.12988L75.4377 7.72413ZM70.3815 7.19354C68.7273 6.56931 65.9495 5.03996 66.1367 4.82148C66.1992 4.75906 67.2915 5.00875 68.5712 5.35207C70.3503 5.85145 71.4739 5.9763 73.3153 5.88267C75.4689 5.75782 75.7498 5.78903 75.7498 6.2572C75.7498 6.56931 75.5313 6.97506 75.2816 7.19354C74.7198 7.66171 73.565 7.31839 73.565 6.69416C73.565 6.44447 73.4402 6.28841 73.2529 6.41326C72.816 6.69416 73.2529 7.50565 74.002 7.81777C75.2504 8.34836 71.9108 7.75534 70.3815 7.19354ZM52.7159 7.78655C53.028 7.6305 53.2777 7.16233 53.2465 6.78779C53.2465 6.31962 53.184 6.2572 53.0592 6.56931C52.6847 7.56808 51.7171 7.78656 50.968 7.00627C49.9069 5.9763 50.3438 5.72661 53.028 5.88267C55.3688 6.00751 57.2103 5.72661 60.0505 4.82148C60.9869 4.54058 59.5824 5.57055 57.8033 6.50689C55.7746 7.53686 51.0929 8.72289 52.7159 7.78655ZM48.3775 7.44323C47.3787 7.09991 46.0367 6.41326 45.35 5.9763L44.164 5.19602L44.8818 4.603C45.2876 4.29089 45.8182 4.10362 46.0679 4.19725C48.9705 5.10238 49.8444 5.53934 49.8444 6.03872C49.8444 6.35083 50.1878 6.94385 50.6247 7.3496C51.3114 8.06746 51.3114 8.12988 50.7808 8.12988C50.4375 8.12988 49.3763 7.81777 48.3775 7.44323ZM92.4479 4.50937C92.4479 3.79151 92.6039 3.57303 93.1657 3.5106C94.0708 3.38576 94.7887 3.94756 94.7887 4.75906C94.7887 5.25844 94.6327 5.35207 94.0084 5.25844C93.5715 5.1648 93.2281 5.22723 93.2281 5.38328C93.2281 5.53934 93.0409 5.63297 92.8224 5.57055C92.6351 5.47692 92.4479 5.00875 92.4479 4.50937ZM33.3024 5.35207C33.3024 5.22723 32.9591 5.1648 32.5534 5.22723C31.5546 5.41449 31.2425 4.79027 31.9292 4.0412C33.0216 2.85517 34.6757 3.72908 34.1139 5.19602C33.9267 5.66419 33.3024 5.82024 33.3024 5.35207ZM103.934 5.13359C104.027 5.03996 104.308 5.00875 104.527 5.10238C104.776 5.19602 104.683 5.28965 104.339 5.28965C103.996 5.32086 103.809 5.22723 103.934 5.13359ZM70.0381 5.13359C68.0094 4.79027 68.7897 4.38452 71.5051 4.38452C74.2517 4.38452 75.2504 4.57179 74.9383 5.03996C74.7511 5.35207 71.786 5.41449 70.0381 5.13359ZM51.405 5.03996C51.405 4.57179 52.3101 4.38452 54.5261 4.38452C57.0855 4.38452 58.3027 4.72785 56.867 5.03996C55.4313 5.35207 51.405 5.35207 51.405 5.03996ZM21.8479 5.13359C21.9415 5.03996 22.2224 5.00875 22.4409 5.10238C22.6906 5.19602 22.597 5.28965 22.2537 5.28965C21.9103 5.32086 21.7231 5.22723 21.8479 5.13359ZM106.462 3.47939L105.806 2.26215L107.398 2.82396C109.146 3.41697 109.302 3.72908 108.178 4.29089C107.148 4.82148 107.211 4.85269 106.462 3.47939ZM103.247 4.19725C103.185 4.13483 103.528 4.07241 104.027 4.07241C104.714 4.07241 104.839 3.97877 104.464 3.7603C103.84 3.35455 102.685 3.35455 102.529 3.79151C102.404 4.16604 98.2844 2.6679 96.3493 1.54429L95.2569 0.920066L98.8462 1.07612C103.403 1.26339 104.464 1.5755 105.494 3.04243C105.931 3.66666 106.243 4.29089 106.181 4.41573C106.025 4.63421 103.528 4.44694 103.247 4.19725ZM81.9921 4.13483L81.3054 3.57303L83.5214 2.57427C84.7699 2.01246 86.4553 1.48187 87.2356 1.38824L88.7025 1.20097L87.1419 2.1061C86.268 2.60548 85.0196 3.38576 84.3329 3.85393C82.866 4.85269 82.866 4.85269 81.9921 4.13483ZM75.2504 4.22846C74.751 3.97877 74.0332 3.7603 73.6587 3.7603C72.4102 3.7603 72.5975 3.19849 74.0332 2.6679C75.4377 2.1061 76.5925 2.16852 78.7773 2.85517C80.1506 3.29213 80.057 3.60424 78.4652 4.16604C76.7486 4.79027 76.3116 4.79027 75.2504 4.22846ZM47.9718 4.19725C47.2851 3.91635 46.7233 3.57303 46.7233 3.44818C46.7233 2.57427 51.2489 2.1061 52.9031 2.79274C53.9955 3.2297 53.9643 3.7603 52.8719 3.7603C52.4974 3.7603 51.842 3.97877 51.405 4.19725C50.3438 4.79027 49.4699 4.79027 47.9718 4.19725ZM41.5422 3.44818C40.4498 2.76153 39.4511 2.19973 39.295 2.19973C39.1702 2.19973 38.7644 1.98125 38.4211 1.70035C37.8593 1.26339 37.9217 1.23218 39.2326 1.41945C40.7307 1.60671 44.8506 3.35455 44.8506 3.79151C44.8506 4.00999 43.9767 4.66542 43.6334 4.69663C43.571 4.69663 42.6346 4.13483 41.5422 3.44818ZM20.1937 4.3221C20.1937 4.10362 20.5995 3.44818 21.0988 2.85517C21.8167 1.98125 22.2849 1.73156 24.1263 1.38824C25.3124 1.16976 27.4035 0.982489 28.7768 0.982489L31.2737 0.982489L30.0253 1.63793C29.3386 2.01246 27.8092 2.69911 26.592 3.19849C24.7505 3.94756 24.3136 4.0412 23.7206 3.72908C23.19 3.44818 22.8155 3.44818 22.3161 3.69787C21.6294 4.00999 21.6294 4.0412 22.5346 4.07241C23.3461 4.10362 23.3773 4.16604 22.8467 4.38452C21.8791 4.79027 20.1937 4.75906 20.1937 4.3221ZM17.9777 4.10362C17.1662 3.44818 17.0726 3.54182 19.4446 2.69911L20.7243 2.26215L20.0689 3.47939C19.3198 4.85269 19.0077 4.94633 17.9777 4.10362Z" fill="#4E3207"/>
</svg>
