<svg viewBox="0 0 79 11" fill="none" xmlns="http://www.w3.org/2000/svg">
<path d="M43.6662 0.143479C41.1739 0.427035 38.1294 0.904602 36.6221 1.26278C35.0551 1.63588 34.9954 1.63588 33.9806 1.41202C32.7866 1.14339 30.4884 1.09861 28.5333 1.32247C27.0708 1.50156 25.0411 2.12837 21.4295 3.53122C20.161 4.02371 18.5939 4.54605 17.9522 4.66545C16.818 4.90423 16.7732 4.90423 16.415 4.62067C15.7882 4.12818 14.4899 3.72523 13.0572 3.56107C11.6991 3.41183 10.8633 3.44168 8.34117 3.74016C6.58014 3.94909 6.34136 3.87447 5.90856 3.05366L5.55039 2.397L4.92358 2.68056C4.38632 2.90442 2.7596 4.00879 0.41654 5.76982C-0.449051 6.41155 0.058364 6.45632 1.74477 5.90414C4.72957 4.91915 6.20704 4.84453 7.75914 5.57581C8.74412 6.03845 9.08737 6.47125 9.01275 7.17267C8.96798 7.62039 8.92321 7.66516 8.41579 7.70994C7.75914 7.76963 7.69944 7.9338 8.22178 8.27705C8.55011 8.48598 8.69935 8.50091 9.17692 8.35167C9.93804 8.12781 10.147 7.85918 10.0425 7.21745L9.95296 6.71003L10.7589 7.35176C12.505 8.78446 15.8778 9.41127 17.0568 8.54568C17.609 8.14273 17.6836 7.51593 17.2359 7.05328C16.8329 6.62049 16.3554 6.59064 15.8927 6.99359L15.5345 7.27714L16.0569 7.20252C16.4449 7.14283 16.6538 7.1876 16.8031 7.36669C16.9672 7.57562 16.9523 7.65024 16.6837 7.91887C16.415 8.1875 16.2061 8.23228 15.2361 8.23228C14.1914 8.21735 13.9675 8.15766 12.8631 7.60547C12.2065 7.27714 11.4603 6.8145 11.2066 6.60556L10.7589 6.21754L11.5051 6.30708C11.9229 6.36678 13.5347 6.4414 15.0868 6.48617L17.9224 6.59064L18.8178 7.26222C20.6833 8.66507 22.4145 9.21726 24.9814 9.23218C26.0559 9.23218 26.6827 8.9934 27.3842 8.3069C27.9811 7.72486 27.9662 7.42638 27.3245 6.85927C26.7872 6.39663 26.0709 6.24739 25.6231 6.53094C25.3097 6.73988 25.5485 6.94881 26.0261 6.87419C26.3693 6.82942 26.5335 6.90404 26.7872 7.21745C26.9514 7.44131 27.1006 7.68009 27.1006 7.75471C27.1006 7.82933 26.8469 8.05319 26.5484 8.26212C25.9216 8.68 25.1754 8.73969 23.5189 8.48598C22.1459 8.27705 21.3549 7.94872 20.2356 7.15775L19.2655 6.47125L19.7879 6.42647C20.0714 6.41155 21.2504 6.29216 22.3996 6.15784C23.5487 6.02353 24.8322 5.96383 25.265 6.0086C25.8768 6.08322 26.0261 6.05338 25.9664 5.90414C25.9216 5.7549 26.1455 5.65043 26.7574 5.51611C28.0557 5.21763 29.8914 4.62067 30.9659 4.14311C31.8166 3.75508 31.9808 3.72523 32.3986 3.87447C32.6673 3.97894 33.0105 4.00879 33.1597 3.93417C33.4284 3.8297 33.4284 3.81478 33.115 3.66554C32.4732 3.38198 32.6971 3.18797 34.2492 2.68056C35.0103 2.42685 35.2491 2.41192 35.4431 2.54624C36.0849 3.03873 36.5624 3.53122 36.8161 4.03864C37.1295 4.66545 37.1892 5.79967 36.9206 6.0683C36.8161 6.17277 36.3833 6.24739 35.9505 6.24739C35.0999 6.24739 34.9059 6.45632 35.5476 6.69511C35.9953 6.87419 36.9504 6.88912 37.2041 6.72495C37.4728 6.56079 37.8459 5.57581 37.8459 5.05347C37.8459 4.35204 37.4579 3.56107 36.7714 2.85964C36.4281 2.50147 36.1893 2.18807 36.2341 2.14329C36.2789 2.09852 36.9803 1.88959 37.7862 1.68065C40.6516 0.919527 44.7557 1.05384 47.4271 1.97913C48.9195 2.50147 49.9492 3.18797 51.1581 4.42666L52.2177 5.51611L51.7998 5.94891C51.3222 6.4414 51.367 6.94881 51.949 7.79948L52.3072 8.33674L51.9789 8.5606C51.2775 9.0531 49.3373 8.6203 49.3373 7.96364C49.3373 7.60547 49.0538 7.70994 48.9493 8.11288C48.9045 8.32182 48.9344 8.59045 49.0389 8.70984C49.5612 9.35157 51.8147 9.41127 52.6206 8.79939C53.0534 8.48598 53.143 8.47106 53.8593 8.65015C54.9935 8.91878 57.3515 8.88893 58.0231 8.59045C58.8141 8.23228 59.605 7.501 59.7095 7.02343C59.7543 6.79957 59.6946 6.32201 59.5603 5.96383C59.2916 5.17286 59.2916 5.20271 59.5752 5.20271C60.0528 5.20271 61.5452 6.128 61.9332 6.66526C62.2914 7.15775 62.3212 7.1876 62.3212 6.85927C62.3212 6.56079 62.3809 6.51602 62.7391 6.60556C64.4255 6.96374 67.2312 7.47115 67.5446 7.47115C67.7535 7.45623 68.1565 7.41146 68.455 7.36669C68.9176 7.27714 69.037 7.32191 69.2459 7.60547C69.6041 8.11288 69.5444 8.82924 69.1116 9.29188C68.6937 9.7396 68.455 9.76945 67.8282 9.44112C67.2461 9.14264 67.0521 9.3068 67.5297 9.69483C68.2311 10.2619 69.0071 10.247 69.7086 9.63513C70.1712 9.24711 70.3503 8.3069 70.1115 7.60547L69.9623 7.15775L71.5592 6.78465C72.4397 6.57571 73.4396 6.39663 73.7679 6.39663C74.2902 6.39663 74.3649 6.35186 74.3052 6.128C74.1708 5.59073 76.3796 4.45651 77.5586 4.45651C78.0063 4.45651 78.1854 4.54605 78.4988 4.93408C78.8271 5.35195 78.8868 5.3818 78.9764 5.14301C79.1256 4.74007 78.5734 4.11326 77.9317 3.94909C77.4093 3.81478 76.3796 3.93417 75.7379 4.21773C75.5438 4.30727 75.4692 4.2028 75.4095 3.75508C75.2901 3.03873 74.4842 2.21791 73.4396 1.75527C72.8725 1.50156 72.3203 1.39709 71.0816 1.35232C69.5444 1.29263 69.4549 1.30755 68.8878 1.68065C68.2609 2.09852 67.7983 2.15822 67.1864 1.91943C66.9476 1.82989 66.7984 1.82989 66.7984 1.91943C66.7984 2.11344 67.2312 2.32238 67.8729 2.44177C68.2162 2.50147 68.5147 2.68056 68.6639 2.91934C68.9773 3.39691 69.7683 3.85955 70.2608 3.85955C70.8279 3.85955 71.8278 3.44168 71.9323 3.15812C72.171 2.54624 71.1264 1.88959 70.4846 2.24776C70.1712 2.42685 70.1712 2.44177 70.6786 2.51639C71.0816 2.57609 71.201 2.66563 71.201 2.88949C71.201 3.12828 71.0816 3.2029 70.6189 3.23274C69.7533 3.30736 69.3653 3.15812 69.1116 2.66563C68.8878 2.24776 68.9027 2.21791 69.2907 1.9642C69.828 1.60603 71.3651 1.60603 72.4994 1.9642C74.0365 2.42685 75.0961 3.78493 74.4693 4.48636C74.0067 4.99377 72.2457 5.78474 70.8726 6.11307L69.5743 6.42647L68.9027 5.68028C68.5296 5.2624 67.9177 4.74007 67.5446 4.48636C66.5745 3.84463 64.3509 2.7701 63.0973 2.30746C62.0824 1.94928 58.3664 1.17323 55.098 0.650895C51.3222 0.039012 46.4719 -0.169924 43.6662 0.143479ZM52.3669 1.23293C54.307 1.68065 55.0532 2.06867 56.665 3.47153C58.0082 4.62067 58.8887 5.97875 58.8887 6.85927C58.8887 7.39653 58.3365 7.96364 57.6798 8.09796C57.0978 8.21735 53.919 8.21735 53.6205 8.09796C53.4564 8.03826 53.4265 7.85918 53.4713 7.38161C53.531 6.96374 53.4713 6.59064 53.3071 6.29216L53.0833 5.82952L53.5608 5.7549C54.2026 5.65043 55.3816 5.90414 55.6353 6.20262C55.7845 6.39663 55.7696 6.47125 55.4711 6.71003C55.2771 6.87419 55.0234 6.99359 54.9189 6.99359C54.6204 6.99359 54.4861 6.59064 54.71 6.32201C54.8592 6.14292 54.8443 6.09815 54.5906 6.09815C53.8892 6.09815 53.7698 6.90404 54.4264 7.27714C54.7697 7.47115 54.8741 7.45623 55.5009 7.15775C56.2919 6.76973 56.4859 6.39663 56.1427 5.87429C55.8293 5.39672 54.8891 5.15794 53.6653 5.23256L52.7102 5.29225L51.4118 3.94909C49.9343 2.397 48.7255 1.60603 47.2778 1.24785C45.278 0.755363 45.3228 0.740438 48.0688 0.785211C50.2925 0.829983 51.0238 0.904603 52.3669 1.23293ZM57.3067 1.56126C62.1123 2.36715 63.9628 3.09843 63.9628 4.17295C63.9628 4.39681 63.9031 4.6356 63.8136 4.68037C63.5897 4.81469 63.6345 5.20271 63.8584 5.20271C63.9778 5.20271 64.2165 5.03854 64.4106 4.82961C64.709 4.51621 64.7389 4.41174 64.5896 4.08341C64.5001 3.87447 64.4553 3.71031 64.5001 3.71031C64.9031 3.71031 66.8879 4.85946 67.5894 5.50119C68.44 6.27723 68.455 6.30708 68.1117 6.4414C67.6341 6.62049 65.112 6.45632 64.0524 6.17277C62.4854 5.73997 60.5602 4.81469 58.4708 3.47153C57.3515 2.75518 55.9934 1.93436 55.4562 1.66572C54.9189 1.39709 54.6055 1.17323 54.7697 1.17323C54.9189 1.17323 56.0531 1.3374 57.3067 1.56126ZM31.727 1.99405C31.936 2.24776 32.2494 2.30746 32.1001 2.06867C32.0405 1.97913 32.324 1.91943 32.8314 1.91943C33.2941 1.91943 33.6672 1.97913 33.6672 2.05375C33.6672 2.21791 31.1599 3.26259 29.1303 3.93417C26.9514 4.66545 21.519 5.51611 19.1611 5.48626H18.3701L20.2356 4.79976C21.2653 4.42666 22.4443 3.99387 22.8473 3.84463C23.2652 3.69539 23.9517 3.57599 24.3845 3.56107C25.1605 3.56107 25.3097 3.47153 24.9963 3.15812C24.7874 2.94919 25.3097 2.66563 26.5634 2.29253C28.3841 1.77019 31.3987 1.59111 31.727 1.99405ZM13.0124 4.32219C14.2958 4.54605 15.9226 5.05347 15.8479 5.18778C15.6987 5.41164 12.9825 5.51611 11.7588 5.35195C10.1619 5.14301 8.55011 4.72514 8.49041 4.50128C8.38595 4.18788 11.5648 4.05356 13.0124 4.32219ZM52.6803 6.57571C52.8146 7.11298 52.7848 7.73978 52.6206 7.73978C52.5311 7.73978 52.352 7.501 52.2177 7.21745C52.0237 6.79957 52.0087 6.66526 52.1729 6.47125C52.4266 6.15784 52.5758 6.18769 52.6803 6.57571Z" fill="#6D542C"/>
</svg>
